<svg width="35" height="36" viewBox="0 0 35 36" fill="none" xmlns="http://www.w3.org/2000/svg">
<path d="M29.7578 5.23125C26.4844 1.85625 22.125 0 17.4922 0C7.92969 0 0.148437 8.00357 0.148437 17.8393C0.148437 20.9813 0.945313 24.0509 2.46094 26.7589L0 36L9.19531 33.517C11.7266 34.9393 14.5781 35.6866 17.4844 35.6866H17.4922C27.0469 35.6866 35 27.683 35 17.8473C35 13.0821 33.0312 8.60625 29.7578 5.23125ZM17.4922 32.6813C14.8984 32.6813 12.3594 31.9661 10.1484 30.6161L9.625 30.2946L4.17188 31.7652L5.625 26.2929L5.28125 25.7304C3.83594 23.3679 3.07812 20.6438 3.07812 17.8393C3.07812 9.66696 9.54688 3.01339 17.5 3.01339C21.3516 3.01339 24.9687 4.55625 27.6875 7.36071C30.4062 10.1652 32.0781 13.8857 32.0703 17.8473C32.0703 26.0277 25.4375 32.6813 17.4922 32.6813ZM25.3984 21.5759C24.9687 21.3509 22.8359 20.2741 22.4375 20.1295C22.0391 19.9768 21.75 19.9045 21.4609 20.3545C21.1719 20.8045 20.3438 21.8009 20.0859 22.1063C19.8359 22.4036 19.5781 22.4438 19.1484 22.2188C16.6016 20.9089 14.9297 19.8804 13.25 16.9152C12.8047 16.1277 13.6953 16.1839 14.5234 14.4804C14.6641 14.183 14.5937 13.9259 14.4844 13.7009C14.375 13.4759 13.5078 11.2821 13.1484 10.3902C12.7969 9.52232 12.4375 9.64286 12.1719 9.62679C11.9219 9.61071 11.6328 9.61072 11.3437 9.61072C11.0547 9.61072 10.5859 9.72321 10.1875 10.1652C9.78906 10.6152 8.67187 11.692 8.67187 13.8857C8.67187 16.0795 10.2266 18.2009 10.4375 18.4982C10.6562 18.7955 13.4922 23.2955 17.8437 25.2321C20.5937 26.4536 21.6719 26.558 23.0469 26.3491C23.8828 26.2205 25.6094 25.2723 25.9687 24.2277C26.3281 23.183 26.3281 22.2911 26.2187 22.1063C26.1172 21.9054 25.8281 21.7929 25.3984 21.5759Z" fill="white"/>
</svg>
