<svg width="36" height="25" viewBox="0 0 36 25" fill="none" xmlns="http://www.w3.org/2000/svg">
<path d="M33.5166 10.1682H29.7377V6.34876C29.7377 5.54818 29.0887 4.89917 28.2881 4.89917H26.2957C25.4951 4.89917 24.8461 5.54818 24.8461 6.34876V10.1682H21.0672C20.2666 10.1682 19.6176 10.8172 19.6176 11.6178V13.6102C19.6176 14.4108 20.2666 15.0598 21.0672 15.0598H24.8461V18.8117C24.8461 19.6123 25.4951 20.2613 26.2957 20.2613H28.2881C29.0887 20.2613 29.7377 19.6123 29.7377 18.8117V15.0598H33.5166C34.3172 15.0598 34.9662 14.4108 34.9662 13.6102V11.6178C34.9662 10.8172 34.3172 10.1682 33.5166 10.1682Z" stroke="white" stroke-width="1.93278"/>
<path d="M15.5362 20.1069L15.5382 20.1036C16.2644 18.8781 16.6075 17.453 16.6075 15.8663C16.6075 14.4031 16.2888 13.0981 15.5969 12.0017C14.9171 10.9152 13.9643 10.0981 12.7678 9.5545C11.5931 9.00718 10.2624 8.74808 8.79899 8.74808C8.06466 8.74808 7.41995 8.78642 6.87637 8.87088C6.86931 8.87186 6.86225 8.87283 6.85521 8.8738L7.12391 5.88043H13.7061C14.5067 5.88043 15.1557 5.23143 15.1557 4.43085V2.4832C15.1557 1.68261 14.5067 1.03361 13.7061 1.03361H3.71166C2.95509 1.03361 2.32576 1.61545 2.26652 2.36969L1.53474 11.6865C1.49107 12.2425 1.77019 12.7742 2.25258 13.054L3.29796 13.6603C3.63142 13.8537 4.01726 13.9006 4.37169 13.8162C4.73104 13.7306 5.17381 13.6482 5.70457 13.5707L5.70458 13.5707L5.71601 13.5689C6.32477 13.4725 6.88711 13.426 7.40469 13.426C8.94967 13.426 9.87758 13.7372 10.389 14.1692L10.389 14.1693L10.3989 14.1774C10.9113 14.5987 11.2105 15.2116 11.2105 16.162C11.2105 16.917 11.0488 17.4552 10.7949 17.8405L10.7949 17.8405L10.7888 17.8499C10.5333 18.2478 10.1625 18.5569 9.63122 18.7708C9.07483 18.9947 8.36527 19.1232 7.47656 19.1232C6.64343 19.1232 5.75844 19.0129 4.81917 18.7854C4.17806 18.6237 3.61153 18.4347 3.11595 18.2212C2.20455 17.8287 1.03361 18.4384 1.03361 19.5683V21.4495C1.03361 21.9717 1.31908 22.4862 1.83051 22.7364C2.55345 23.0901 3.37009 23.3512 4.27042 23.5293L4.27223 23.5297C5.29892 23.7308 6.39187 23.8292 7.54843 23.8292C9.38317 23.8292 11.0019 23.5319 12.3698 22.894C13.7345 22.2576 14.8045 21.3306 15.5362 20.1069Z" stroke="white" stroke-width="1.93278"/>
</svg>
