<svg width="32" height="33" viewBox="0 0 32 33" fill="none" xmlns="http://www.w3.org/2000/svg">
<path d="M15.1318 0.0441608C13.7713 0.26241 12.3964 0.844409 11.2906 1.68103C8.67157 3.66711 7.52939 7.15183 8.43877 10.3528C9.55912 14.2668 13.4658 16.7839 17.4743 16.1656C20.7917 15.6563 23.3743 13.2701 24.2037 9.95998C24.4365 9.04333 24.4365 7.20276 24.211 6.29338C23.4253 3.17968 21.0463 0.822585 18.0054 0.153286C17.3506 0.0150604 15.7429 -0.050415 15.1318 0.0441608ZM17.7508 2.48128C19.344 2.91051 20.7772 4.10361 21.4974 5.60226C21.9412 6.53346 22.043 6.99178 22.0357 8.11941C22.0357 9.25431 21.9339 9.72718 21.4974 10.6366C20.3989 12.9209 17.8672 14.2668 15.4082 13.8667C12.2945 13.3647 10.112 10.5056 10.4976 7.43556C10.8177 4.91113 12.6364 2.95416 15.1681 2.40853C15.7574 2.27758 17.1397 2.32123 17.7508 2.48128Z" fill="white"/>
<path d="M24.4803 15.3945C20.61 16.3548 18.8858 20.7998 21.0683 24.2045L21.2793 24.5392V28.3877C21.2793 32.0979 21.2866 32.2434 21.4248 32.4762C21.6358 32.8254 21.9704 33 22.4287 33C22.7998 33 22.8507 32.9709 24.3348 31.9742L25.8553 30.9485L27.3321 31.9524C28.7362 32.9054 28.8307 32.9564 29.2236 32.9855C29.7328 33.0218 30.0893 32.8327 30.3003 32.4107C30.4385 32.1416 30.4458 31.967 30.4458 28.3004V24.4664L30.6568 24.1318C31.3333 23.0769 31.5734 22.233 31.5661 20.9235C31.5589 20.0287 31.5443 19.8832 31.3333 19.2503C31.006 18.2609 30.664 17.7225 29.8638 16.915C29.2672 16.3184 29.0708 16.1657 28.4815 15.8747C28.1032 15.6928 27.5285 15.4745 27.2157 15.3945C26.4591 15.2054 25.2514 15.2054 24.4803 15.3945ZM26.8738 17.7152C28.8962 18.3482 29.8783 20.7489 28.8671 22.604C28.4088 23.4552 27.3539 24.19 26.3572 24.3573C25.0841 24.5683 23.6655 23.9208 22.9525 22.815C21.9413 21.2363 22.4797 18.9884 24.0947 18.0353C24.8804 17.577 26.008 17.4461 26.8738 17.7152ZM25.8262 26.6999C26.881 26.6926 27.3394 26.6198 27.9941 26.3434C28.1105 26.2925 28.1178 26.4016 28.1178 27.9803C28.1178 29.3043 28.096 29.6535 28.0305 29.6099C27.9796 29.5735 27.5867 29.3116 27.1648 29.0206C26.3718 28.4822 25.9935 28.3367 25.5934 28.4168C25.4697 28.4459 24.9677 28.7369 24.4876 29.0642L23.6073 29.6608V27.9948V26.3216L24.1747 26.5107C24.6767 26.6853 24.844 26.6999 25.8262 26.6999Z" fill="white"/>
<path d="M9.14467 18.6763C5.18707 19.1419 1.73145 22.0083 0.48015 25.8495C0.080025 27.0862 0 27.7483 0 29.8798V31.8077L0.196425 32.0696C0.603825 32.6007 0.050925 32.5716 8.3226 32.5498C15.6849 32.5279 15.7431 32.5279 15.9395 32.3752C16.3251 32.0914 16.4415 31.8586 16.4415 31.4003C16.4415 30.942 16.3251 30.7092 15.9395 30.4255C15.7431 30.2727 15.6776 30.2727 9.00645 30.2509L2.2698 30.2363L2.31345 29.0869C2.33527 28.4612 2.40075 27.7119 2.46622 27.4354C3.1719 24.2126 5.53627 21.841 8.7882 21.0916C9.21742 20.9898 9.88672 20.9607 12.5275 20.9316C15.6267 20.8879 15.7504 20.8807 15.9395 20.7352C16.3251 20.4514 16.4415 20.2186 16.4415 19.7603C16.4415 19.302 16.3251 19.0692 15.9395 18.7855C15.7431 18.64 15.6485 18.6327 12.7094 18.6254C11.0434 18.6181 9.43567 18.64 9.14467 18.6763Z" fill="white"/>
</svg>
