<svg width="29" height="36" viewBox="0 0 29 36" fill="none" xmlns="http://www.w3.org/2000/svg">
<path opacity="0.964" fill-rule="evenodd" clip-rule="evenodd" d="M13.6535 0C14.0896 0 14.5258 0 14.9619 0C15.4553 0.144896 15.9157 0.367552 16.343 0.667969C17.1182 1.34747 17.8693 2.05059 18.5964 2.77734C18.9408 3.02116 19.3285 3.13834 19.7595 3.12891C20.8284 3.13636 21.8946 3.18324 22.9578 3.26953C24.2376 3.54652 25.0009 4.30824 25.2476 5.55469C25.3373 6.6535 25.3858 7.75505 25.393 8.85938C25.4258 9.2366 25.5712 9.56468 25.8291 9.84375C26.7091 10.6243 27.5087 11.468 28.2279 12.375C28.8791 13.7016 28.7095 14.9203 27.719 16.0312C26.9389 16.7389 26.212 17.4888 25.5383 18.2812C25.4715 18.4641 25.423 18.6517 25.393 18.8438C25.3687 19.8047 25.3445 20.7656 25.3203 21.7266C25.0927 23.4839 24.063 24.4214 22.2309 24.5391C22.2431 28.1251 22.2309 31.711 22.1946 35.2969C22.0457 35.6164 21.8155 35.8508 21.504 36C21.2375 36 20.971 36 20.7044 36C18.5855 35.0974 16.4533 34.2067 14.3077 33.3281C12.1621 34.2067 10.0299 35.0974 7.91095 36C7.6444 36 7.37792 36 7.11136 36C6.79988 35.8508 6.56967 35.6164 6.4208 35.2969C6.38446 31.711 6.37232 28.1251 6.38446 24.5391C4.50883 24.4234 3.47903 23.4625 3.29512 21.6562C3.27092 20.7188 3.24664 19.7812 3.22243 18.8438C3.18958 18.4665 3.0442 18.1384 2.78629 17.8594C1.90632 17.0788 1.10673 16.2351 0.387512 15.3281C-0.263734 14.0015 -0.0941262 12.7828 0.896344 11.6719C1.67653 10.9642 2.40343 10.2143 3.07705 9.42188C3.14393 9.23899 3.19241 9.05147 3.22243 8.85938C3.23094 7.7554 3.27942 6.65381 3.36781 5.55469C3.61452 4.30824 4.37777 3.54652 5.65756 3.26953C6.7208 3.18324 7.78694 3.13636 8.85593 3.12891C9.28691 3.13834 9.67456 3.02116 10.019 2.77734C10.748 2.04866 11.4992 1.34554 12.2724 0.667969C12.6996 0.367552 13.1601 0.144896 13.6535 0ZM14.0169 2.17969C14.3714 2.13134 14.6864 2.21337 14.9619 2.42578C15.6871 3.1506 16.4382 3.85372 17.2153 4.53516C17.9479 5.05243 18.7717 5.31024 19.6868 5.30859C20.5591 5.33203 21.4313 5.35547 22.3036 5.37891C22.7856 5.44672 23.04 5.71624 23.0669 6.1875C23.0911 7.12498 23.1154 8.06252 23.1396 9C23.2138 9.84888 23.5287 10.5989 24.0845 11.25C24.7145 11.8594 25.3445 12.4687 25.9745 13.0781C26.1573 13.3131 26.2905 13.5709 26.3743 13.8516C26.2905 14.1322 26.1573 14.39 25.9745 14.625C25.3445 15.2344 24.7145 15.8437 24.0845 16.4531C23.53 17.1047 23.215 17.8547 23.1396 18.7031C23.1154 19.6406 23.0911 20.5781 23.0669 21.5156C23.04 21.9869 22.7856 22.2564 22.3036 22.3242C21.4313 22.3476 20.5591 22.3711 19.6868 22.3945C18.5644 22.4124 17.5952 22.7874 16.7792 23.5195C16.1695 24.1092 15.5637 24.6952 14.9619 25.2773C14.5258 25.6055 14.0896 25.6055 13.6535 25.2773C13.0517 24.6952 12.4459 24.1092 11.8362 23.5195C11.2284 22.9443 10.5015 22.5927 9.65552 22.4648C8.54278 22.3841 7.42822 22.3373 6.31177 22.3242C5.82976 22.2564 5.57534 21.9869 5.54852 21.5156C5.52431 20.5781 5.50004 19.6406 5.47583 18.7031C5.40154 17.8539 5.08657 17.1039 4.53086 16.4531C3.90085 15.8437 3.27092 15.2344 2.64091 14.625C2.45811 14.39 2.32485 14.1322 2.24111 13.8516C2.32485 13.5709 2.45811 13.3131 2.64091 13.0781C3.27092 12.4687 3.90085 11.8594 4.53086 11.25C5.08665 10.5989 5.40161 9.84888 5.47583 9C5.50004 8.06252 5.52431 7.12498 5.54852 6.1875C5.57534 5.71624 5.82976 5.44672 6.31177 5.37891C7.18405 5.35547 8.05633 5.33203 8.92862 5.30859C10.051 5.29074 11.0202 4.91574 11.8362 4.18359C12.3232 3.73612 12.7835 3.26737 13.2173 2.77734C13.4766 2.56082 13.7431 2.36159 14.0169 2.17969ZM8.63786 24.5391C9.14022 24.5379 9.60056 24.6667 10.019 24.9258C10.85 25.8003 11.7466 26.5972 12.7085 27.3164C14.2171 28.0038 15.574 27.7928 16.7792 26.6836C17.3849 26.0977 17.9907 25.5117 18.5964 24.9258C19.0148 24.6667 19.4752 24.5379 19.9775 24.5391C20.0017 27.4457 19.9775 30.3519 19.9048 33.2578C18.3571 32.6064 16.8063 31.9619 15.2527 31.3242C14.6227 30.9961 13.9927 30.9961 13.3627 31.3242C11.8205 31.9881 10.2698 32.6327 8.71055 33.2578C8.63786 30.3519 8.61365 27.4457 8.63786 24.5391Z" fill="white"/>
<path opacity="0.961" d="M13.7373 8.20057L13.7033 8.20007L13.6697 8.20416C11.5142 8.4658 9.87946 9.57293 8.80359 11.4898L8.79247 11.5096L8.78319 11.5303C7.7558 13.8269 7.96072 16.0359 9.39548 18.0888L9.41381 18.1151L9.43533 18.1387C10.527 19.3397 11.7374 20.0884 13.0692 20.323C14.4014 20.5576 15.7903 20.2664 17.2174 19.5081L17.2499 19.4908L17.2795 19.469C18.441 18.6123 19.2514 17.5924 19.6738 16.4042C20.0959 15.2165 20.1157 13.9026 19.7665 12.482L19.7589 12.451L19.7474 12.4213C19.2251 11.0685 18.4613 10.0148 17.4392 9.29653C16.4167 8.57799 15.1733 8.22169 13.7373 8.20057ZM13.6828 6.96129C15.2441 6.97089 16.5782 7.32316 17.7031 8.00043C18.8276 8.67749 19.7708 9.69607 20.5249 11.0808C21.1829 12.7236 21.3689 14.248 21.113 15.6663C20.857 17.0852 20.1518 18.4361 18.9659 19.7203C16.9835 21.4762 14.7374 22.0324 12.1733 21.4035C10.6695 20.8906 9.50277 20.1147 8.6492 19.0872C7.79568 18.0598 7.2334 16.7545 6.97958 15.1489C6.88173 13.3865 7.19122 11.8976 7.8815 10.6594C8.57173 9.42133 9.66244 8.39848 11.1851 7.60027C11.9979 7.26013 12.83 7.04761 13.6828 6.96129Z" fill="white" stroke="white"/>
<path opacity="0.955" fill-rule="evenodd" clip-rule="evenodd" d="M16.147 12.0197C17.0516 11.9115 17.5873 12.2494 17.7541 13.0334C17.7116 13.2736 17.6224 13.4989 17.4862 13.7093C16.4531 14.6217 15.42 15.5341 14.3869 16.4464C13.9022 16.6717 13.4175 16.6717 12.9329 16.4464C12.3055 15.915 11.7061 15.3631 11.1345 14.7906C10.9025 13.7694 11.3744 13.2851 12.5503 13.3376C12.9845 13.5175 13.3543 13.7767 13.6599 14.1148C14.4578 13.3761 15.2868 12.6777 16.147 12.0197Z" fill="white"/>
</svg>
