<svg width="56" height="56" viewBox="0 0 56 56" fill="none" xmlns="http://www.w3.org/2000/svg">
<g filter="url(#filter0_d_108_2016)">
<circle cx="28" cy="28" r="18" fill="white"/>
</g>
<circle cx="28.5" cy="27.5" r="12.5" fill="#5197C0"/>
<path d="M27.613 22.0083C26.0843 22.1972 24.8983 23.1364 24.4367 24.5208C24.2846 24.9715 24.2625 25.182 24.2487 26.2696L24.2321 27.2708L24.0469 27.3005C23.5963 27.368 23.2535 27.6433 23.0766 28.0778L23.0103 28.2397L23.002 31.0194C22.9964 33.011 23.002 33.8503 23.0268 33.9826C23.1098 34.4791 23.4857 34.865 23.9861 34.9703C24.0911 34.9919 25.2245 35 28.0083 35C32.1964 35 32.0277 35.0054 32.3346 34.8623C32.647 34.7139 32.9096 34.3523 32.9732 33.9826C32.998 33.8503 33.0036 33.011 32.998 31.0194L32.9897 28.2397L32.9234 28.0778C32.7465 27.6433 32.4037 27.368 31.9531 27.3005L31.7679 27.2708L31.7513 26.2696C31.7375 25.182 31.7154 24.9715 31.5633 24.5208C31.2565 23.6006 30.593 22.8368 29.725 22.405C29.4098 22.2458 29.0449 22.1217 28.716 22.0596C28.4893 22.0164 27.8065 21.984 27.613 22.0083ZM28.6026 22.8665C29.537 23.0608 30.3166 23.6896 30.6898 24.5559C30.8777 24.9877 30.8833 25.0336 30.8943 26.2075L30.9054 27.2816H28H25.0946L25.1057 26.2075C25.114 25.2117 25.1195 25.1227 25.1748 24.931C25.3351 24.3751 25.5922 23.9595 26.0096 23.5736C26.4768 23.1445 26.9855 22.9178 27.7097 22.8179C27.8645 22.7964 28.4008 22.826 28.6026 22.8665ZM31.9531 28.1425C32.0056 28.1695 32.0747 28.2343 32.1051 28.2829C32.1604 28.3719 32.1604 28.4232 32.1604 31.1408C32.1604 33.8503 32.1604 33.9097 32.1051 33.996C32.0747 34.0446 32.0001 34.1067 31.9393 34.1364C31.8259 34.1904 31.7541 34.1904 28 34.1904C24.2459 34.1904 24.1741 34.1904 24.0607 34.1364C23.9999 34.1067 23.9253 34.0446 23.8949 33.996C23.8396 33.9097 23.8396 33.8503 23.8396 31.1408C23.8396 28.407 23.8396 28.3746 23.8949 28.2802C23.928 28.2289 23.9944 28.1641 24.0469 28.1398C24.1381 28.0939 24.3842 28.0912 28 28.0912C31.7098 28.0912 31.8619 28.0939 31.9531 28.1425Z" fill="white"/>
<path d="M31.9531 28.1425C32.0056 28.1695 32.0747 28.2343 32.1051 28.2829C32.1604 28.3719 32.1604 28.4232 32.1604 31.1408C32.1604 33.8503 32.1604 33.9097 32.1051 33.996C32.0747 34.0446 32.0001 34.1067 31.9393 34.1364C31.8259 34.1904 31.7541 34.1904 28 34.1904C24.2459 34.1904 24.1741 34.1904 24.0607 34.1364C23.9999 34.1067 23.9253 34.0446 23.8949 33.996C23.8396 33.9097 23.8396 33.8503 23.8396 31.1408C23.8396 28.407 23.8396 28.3746 23.8949 28.2802C23.928 28.2289 23.9944 28.1641 24.0469 28.1398C24.1381 28.0939 24.3842 28.0912 28 28.0912C31.7098 28.0912 31.8619 28.0939 31.9531 28.1425Z" fill="white"/>
<path d="M27.7351 29.0489C27.6549 29.0755 27.5459 29.1346 27.4902 29.179C27.0495 29.522 26.8758 30.2819 27.094 30.8969C27.1897 31.1631 27.35 31.3848 27.5325 31.5001L27.6661 31.5829L27.6683 32.1299C27.6683 32.5912 27.675 32.6947 27.7084 32.7805C27.8174 33.0732 28.1869 33.0732 28.296 32.7805C28.3294 32.6947 28.3361 32.5912 28.3361 32.1299L28.3383 31.5829L28.4719 31.5001C28.7635 31.3168 28.9749 30.894 28.9972 30.4534C29.0328 29.7645 28.7278 29.1938 28.2448 29.04C28.0623 28.9838 27.9154 28.9868 27.7351 29.0489ZM28.207 29.9744C28.3917 30.1488 28.3672 30.5983 28.1669 30.7254C28.0756 30.7816 27.9287 30.7816 27.8375 30.7254C27.6505 30.6072 27.6126 30.1814 27.7751 29.9921C27.8775 29.8679 28.0868 29.862 28.207 29.9744Z" fill="white"/>
<defs>
<filter id="filter0_d_108_2016" x="0" y="0" width="56" height="56" filterUnits="userSpaceOnUse" color-interpolation-filters="sRGB">
<feFlood flood-opacity="0" result="BackgroundImageFix"/>
<feColorMatrix in="SourceAlpha" type="matrix" values="0 0 0 0 0 0 0 0 0 0 0 0 0 0 0 0 0 0 127 0" result="hardAlpha"/>
<feOffset/>
<feGaussianBlur stdDeviation="5"/>
<feComposite in2="hardAlpha" operator="out"/>
<feColorMatrix type="matrix" values="0 0 0 0 0 0 0 0 0 0 0 0 0 0 0 0 0 0 0.15 0"/>
<feBlend mode="normal" in2="BackgroundImageFix" result="effect1_dropShadow_108_2016"/>
<feBlend mode="normal" in="SourceGraphic" in2="effect1_dropShadow_108_2016" result="shape"/>
</filter>
</defs>
</svg>
