<svg width="46" height="46" viewBox="0 0 46 46" fill="none" xmlns="http://www.w3.org/2000/svg">
<path d="M14.0606 0.0314827C13.9618 0.0494576 13.6563 0.112373 13.3868 0.166298C11.4551 0.561768 9.53249 2.18857 8.71492 4.11198C7.87039 6.10729 8.06805 8.48009 9.22703 10.2867L9.53249 10.763H6.66649C5.08525 10.763 3.58487 10.808 3.31534 10.8529C1.69816 11.1585 0.395431 12.4617 0.0899635 14.0795C-0.0358171 14.7267 -0.0268328 17.7376 0.0989478 18.3308C0.341525 19.4543 1.13215 20.5149 2.11144 21.0182L2.69542 21.3238V31.7587C2.69542 38.4816 2.73136 42.3644 2.78526 42.679C3.09073 44.2968 4.39346 45.6 6.01064 45.9056C6.67548 46.0315 39.3245 46.0315 39.9894 45.9056C41.6065 45.6 42.9093 44.2968 43.2147 42.679C43.2686 42.3644 43.3046 38.4816 43.3046 31.7587V21.3238L43.8886 21.0182C44.8679 20.5149 45.6585 19.4543 45.9011 18.3308C46.0268 17.7376 46.0358 14.7267 45.91 14.0795C45.6046 12.4617 44.3018 11.1585 42.6847 10.8529C42.4151 10.808 40.9147 10.763 39.3335 10.763H36.4675L36.773 10.2867C37.932 8.48009 38.1296 6.10729 37.2851 4.11198C36.4675 2.18857 34.6796 0.669621 32.6132 0.148323C31.8855 -0.0314331 30.0257 -0.0134583 29.289 0.193264C28.2109 0.480877 27.4203 0.939259 26.6297 1.73019C25.4617 2.88963 24.743 4.1659 23.575 7.09595C23.2785 7.82397 23.027 8.42616 23 8.42616C22.973 8.42616 22.7215 7.82397 22.425 7.09595C21.257 4.1659 20.5383 2.88963 19.3703 1.73019C18.5887 0.948246 17.7891 0.480877 16.7559 0.202251C16.2348 0.058445 14.429 -0.0583992 14.0606 0.0314827ZM16.4235 2.92558C17.7801 3.44688 18.5168 4.59732 20.3137 9.02835L21.0145 10.763H17.843C16.0551 10.763 14.4559 10.7271 14.1864 10.6731C12.5153 10.3586 11.2215 9.01936 10.943 7.31166C10.6016 5.27142 12.0571 3.2042 14.1145 2.7638C14.7254 2.63797 15.8754 2.71886 16.4235 2.92558ZM31.8136 2.7638C33.4847 3.07837 34.7785 4.41757 35.057 6.12526C35.3984 8.20147 33.9249 10.2687 31.8136 10.6731C31.5441 10.7271 29.9449 10.763 28.157 10.763H24.9855L25.6863 9.02835C27.1597 5.39725 27.8605 4.10299 28.741 3.41092C29.5496 2.77279 30.6367 2.5391 31.8136 2.7638ZM17.6094 16.1557V18.8521H10.6915C3.92627 18.8521 3.75557 18.8521 3.41416 18.6723C2.78526 18.3488 2.69542 18.0432 2.69542 16.1557C2.69542 14.2863 2.78526 13.9627 3.3962 13.6481C3.71963 13.4684 3.93526 13.4684 10.6735 13.4594H17.6094V16.1557ZM25.6953 28.3793V43.2991H23H20.3047V28.3793V13.4594H23H25.6953V28.3793ZM42.5858 13.6391C43.2147 13.9627 43.3046 14.2683 43.3046 16.1557C43.3046 18.0432 43.2147 18.3488 42.5858 18.6723C42.2444 18.8521 42.0737 18.8521 35.3085 18.8521H28.3906V16.1557V13.4594H35.3085C42.0737 13.4594 42.2444 13.4594 42.5858 13.6391ZM17.6094 32.4238V43.2991H12.0391C6.63055 43.2991 6.45087 43.2902 6.10946 43.1194C5.87587 43.0025 5.6872 42.8138 5.5704 42.5801C5.39072 42.2296 5.39072 42.0768 5.39072 31.8845V21.5485H11.5001H17.6094V32.4238ZM40.6093 31.8845C40.6093 42.0768 40.6093 42.2296 40.4296 42.5801C40.3128 42.8138 40.1241 43.0025 39.8905 43.1194C39.5491 43.2902 39.3694 43.2991 33.9609 43.2991H28.3906V32.4238V21.5485H34.4999H40.6093V31.8845Z" fill="#BB1E25"/>
</svg>
