<svg width="23" height="21" viewBox="0 0 23 21" fill="none" xmlns="http://www.w3.org/2000/svg">
<path d="M5.84058 0.840134C3.77805 1.09901 2.04231 2.35095 1.09168 4.25645C-0.0796325 6.60332 0.238658 9.41276 1.89801 11.4498C2.2545 11.8869 10.7889 20.8627 10.8908 20.9094C10.9502 20.9349 11.0733 20.9688 11.1624 20.9816C11.5528 21.0452 11.3406 21.2489 16.0513 16.2751C18.4491 13.75 20.4904 11.5771 20.5965 11.4498C22.4638 9.16238 22.6081 5.94127 20.953 3.49256C20.0194 2.1133 18.6231 1.19238 17.0147 0.899548C16.4206 0.789207 15.4317 0.801939 14.8546 0.920767C13.539 1.19662 12.5968 1.72286 11.5995 2.74139L11.2515 3.09788L10.7932 2.63529C9.85528 1.70588 8.86646 1.16691 7.64847 0.920767C7.18164 0.827402 6.26921 0.784964 5.84058 0.840134ZM7.59754 2.49524C8.01768 2.60559 8.62031 2.8772 9.00226 3.13183C9.15504 3.23368 9.61338 3.65807 10.0378 4.09094C10.8186 4.88455 10.9714 4.99913 11.2558 4.99913C11.5359 4.99489 11.7183 4.85909 12.3719 4.17158C13.2589 3.24217 13.7342 2.89841 14.549 2.60559C15.5718 2.24061 16.8534 2.30427 17.855 2.77534C18.7207 3.187 19.5653 4.02728 20.0321 4.95669C20.9785 6.82824 20.6729 9.08599 19.264 10.6223C19.1154 10.7835 17.2481 12.7569 15.1219 15.0019L11.2473 19.0888L7.39808 15.0232C2.80196 10.1767 3.06084 10.4568 2.76801 10.0112C1.14685 7.54546 2.00411 4.10792 4.56317 2.82627C4.93239 2.63954 5.18702 2.55042 5.64536 2.44856C6.14189 2.33822 7.07554 2.35944 7.59754 2.49524Z" fill="#999999"/>
</svg>
