<svg width="30" height="30" viewBox="0 0 30 30" fill="none" xmlns="http://www.w3.org/2000/svg">
<path fill-rule="evenodd" clip-rule="evenodd" d="M6.79711 6.56946C9.60711 4.07888 13.2411 2.8125 16.7231 2.8125C19.7062 2.8125 22.628 3.74421 24.8308 5.68297L24.8315 5.68358L24.8322 5.68419C27.9729 8.45941 27.9733 13.055 24.8331 15.8306C24.8328 15.8309 24.8325 15.8312 24.8322 15.8314L23.0586 17.406C23.0585 17.4061 23.0585 17.4061 23.0584 17.4062C22.8117 17.6253 22.7451 17.8362 22.7451 17.9883C22.7451 18.1403 22.8117 18.3513 23.0586 18.5705L23.06 18.5718L23.0615 18.5731C23.2204 18.7154 23.3009 18.7653 23.3761 18.799C23.4639 18.8384 23.6033 18.8813 23.9131 18.9325L23.9146 18.9327L23.9162 18.933C23.9425 18.9374 23.9708 18.942 24.0009 18.9469C24.4362 19.0179 25.247 19.1501 25.838 19.6963L25.8397 19.6979L25.8414 19.6995C26.4005 20.2214 26.6898 20.9851 26.7134 21.7168C26.7374 22.4609 26.4887 23.2886 25.8174 23.8815C23.3431 26.0809 19.9096 27.1875 16.477 27.1875H16.3741L16.3707 27.1875C12.9348 27.1627 9.42441 26.0292 6.7976 23.7064C1.48299 19.0091 1.48283 11.2669 6.79711 6.56946ZM16.7231 4.6875C13.6781 4.6875 10.492 5.79987 8.04033 7.97304L8.03982 7.97349L8.03931 7.97394C3.56893 11.925 3.56893 18.3504 8.03931 22.3014L8.03951 22.3016C10.2751 24.2787 13.3257 25.2897 16.3808 25.3125H16.477C19.5361 25.3125 22.5004 24.3219 24.5728 22.4791L24.5743 22.4778L24.5757 22.4766C24.7471 22.3254 24.8492 22.0815 24.8394 21.7773C24.8292 21.4616 24.7006 21.2007 24.5636 21.0717C24.4218 20.942 24.1684 20.8771 23.6062 20.7822C23.2426 20.7221 22.9166 20.6478 22.6093 20.5101C22.2895 20.3668 22.0452 20.1798 21.8119 19.971C21.2218 19.4463 20.8701 18.7467 20.8701 17.9883C20.8701 17.2292 21.2225 16.529 21.8135 16.0041L23.5898 14.4271L23.5907 14.4264C25.8869 12.3974 25.8871 9.11911 23.5914 7.08988C21.7864 5.50168 19.3296 4.6875 16.7231 4.6875Z" fill="#BB1E25"/>
<path d="M8.4375 14.0625C9.47303 14.0625 10.3125 13.223 10.3125 12.1875C10.3125 11.152 9.47303 10.3125 8.4375 10.3125C7.40197 10.3125 6.5625 11.152 6.5625 12.1875C6.5625 13.223 7.40197 14.0625 8.4375 14.0625Z" fill="#BB1E25"/>
<path d="M8.90625 20.0977C9.94178 20.0977 10.7812 19.2582 10.7812 18.2227C10.7812 17.1871 9.94178 16.3477 8.90625 16.3477C7.87072 16.3477 7.03125 17.1871 7.03125 18.2227C7.03125 19.2582 7.87072 20.0977 8.90625 20.0977Z" fill="#BB1E25"/>
<path d="M13.125 10.3125C14.1605 10.3125 15 9.47303 15 8.4375C15 7.40197 14.1605 6.5625 13.125 6.5625C12.0895 6.5625 11.25 7.40197 11.25 8.4375C11.25 9.47303 12.0895 10.3125 13.125 10.3125Z" fill="#BB1E25"/>
<path d="M15 24.3164C16.5533 24.3164 17.8125 23.0572 17.8125 21.5039C17.8125 19.9506 16.5533 18.6914 15 18.6914C13.4467 18.6914 12.1875 19.9506 12.1875 21.5039C12.1875 23.0572 13.4467 24.3164 15 24.3164Z" fill="#BB1E25"/>
<path d="M19.2188 10.3125C20.2543 10.3125 21.0938 9.47303 21.0938 8.4375C21.0938 7.40197 20.2543 6.5625 19.2188 6.5625C18.1832 6.5625 17.3438 7.40197 17.3438 8.4375C17.3438 9.47303 18.1832 10.3125 19.2188 10.3125Z" fill="#BB1E25"/>
</svg>
