<svg width="28" height="26" viewBox="0 0 28 26" fill="none" xmlns="http://www.w3.org/2000/svg">
<path d="M5.56285 0.750002C5.38889 0.750008 5.21836 0.798415 5.07035 0.889808C4.92233 0.981202 4.80266 1.11198 4.72472 1.2675L0.974725 8.7675C0.893625 8.92898 0.86092 9.11045 0.880547 9.29008C0.900173 9.46971 0.971294 9.63985 1.08535 9.78L13.2729 24.78C13.3608 24.8882 13.4717 24.9753 13.5975 25.0352C13.7234 25.0951 13.861 25.1262 14.0003 25.1262C14.1397 25.1262 14.2773 25.0951 14.4032 25.0352C14.529 24.9753 14.6399 24.8882 14.7278 24.78L26.9153 9.78C27.0297 9.64004 27.1012 9.47 27.1211 9.29037C27.1411 9.11073 27.1087 8.92915 27.0279 8.7675L23.2779 1.2675C23.1998 1.11169 23.0798 0.980728 22.9314 0.889315C22.7831 0.797903 22.6121 0.749659 22.4379 0.750002H5.56285ZM3.32972 8.25L6.14222 2.625H9.98598L8.57972 8.25H3.32972ZM3.7816 10.125H8.62472L11.6491 19.8075L3.7816 10.125ZM10.5878 10.125H17.4128L14.0003 21.0431L10.5878 10.125ZM19.3778 10.125H24.2191L16.3516 19.8075L19.3778 10.125ZM24.671 8.25H19.421L18.0147 2.625H21.8585L24.671 8.25ZM17.4879 8.25H10.5128L11.9191 2.625H16.0816L17.4879 8.25Z" fill="#BB1E25"/>
</svg>
