<svg width="30" height="30" viewBox="0 0 30 30" fill="none" xmlns="http://www.w3.org/2000/svg">
<path d="M21.7436 0.124662C14.8971 0.35327 9.31091 1.7718 5.68251 4.18682C4.51604 4.96057 3.26749 6.08602 2.5465 7.00631C0.600415 9.49167 -0.231947 12.5104 0.0552766 15.9747C0.242851 18.2022 0.85833 20.6641 1.83724 23.1026C1.98964 23.466 2.10687 23.8001 2.10687 23.8411C2.10687 23.8822 2.00136 24.1459 1.86654 24.4273C1.45036 25.3183 0.834884 26.8834 0.489043 27.9267C0.172511 28.8822 0.160787 28.9408 0.231128 29.187C0.371809 29.7146 0.905224 30.0311 1.41519 29.8904C1.81965 29.7849 2.00136 29.5446 2.25342 28.7825C2.58753 27.7802 2.89234 26.9771 3.28508 26.0451L3.64264 25.2186L4.21123 25.4824C6.59694 26.5961 8.97093 27.2937 11.3977 27.5868C12.318 27.6981 14.3227 27.7157 15.1492 27.6161C20.2078 27.0182 23.8186 24.1928 25.542 19.4917C26.0168 18.1846 26.2806 16.9771 26.5502 14.8317C27.3767 8.24899 28.4846 3.75892 29.7155 2.00627C29.8445 1.81283 29.9676 1.56664 29.991 1.45527C30.0496 1.07426 29.8152 0.617046 29.4752 0.435333C29.229 0.312237 27.7225 0.189142 25.542 0.118801C23.5666 0.0601845 23.6193 0.0601845 21.7436 0.124662ZM25.7823 2.07661C25.7706 2.0942 25.0848 2.4459 24.2641 2.86208C21.855 4.07545 19.182 5.66397 17.1773 7.07079C16.6498 7.44007 16.2043 7.7273 16.1867 7.70971C16.1339 7.66282 16.2981 6.61943 16.4446 6.1036C16.5208 5.8281 16.5853 5.49985 16.5853 5.37675C16.5853 4.93126 16.3039 4.5737 15.8526 4.4506C15.454 4.33923 14.9088 4.60887 14.7447 5.00746C14.4458 5.73432 14.182 7.3287 14.182 8.47173L14.1761 9.29237L13.4962 9.84923C11.9311 11.1271 9.78571 13.1611 8.3027 14.7731L7.73997 15.3885L7.73411 14.861C7.72825 13.4952 7.99203 11.9419 8.502 10.3123C8.66612 9.8082 8.67198 9.72614 8.61337 9.49753C8.47269 8.97584 7.94513 8.65931 7.44103 8.79413C7.04243 8.89964 6.84313 9.14583 6.63211 9.79062C5.82906 12.2701 5.60045 14.7907 5.98732 17.0943L6.0518 17.5105L5.78802 17.8563C5.39529 18.3663 4.24053 20.0955 3.77746 20.8517C3.56058 21.2151 3.36714 21.514 3.34369 21.514C3.32025 21.514 3.20301 21.2034 3.07992 20.8282C1.81965 17.0064 1.62621 13.8 2.49375 11.1447C3.78918 7.1763 7.7048 4.3744 13.8303 3.02621C16.1574 2.51624 18.1269 2.26418 21.1867 2.08834C21.685 2.06489 25.8116 2.05316 25.7823 2.07661ZM26.4974 4.64404C25.8058 6.95355 25.2313 9.90785 24.7331 13.718C24.2583 17.3464 24.0121 18.337 23.1211 20.1365C21.556 23.2901 18.9065 25.1307 15.1785 25.6407C14.3344 25.7579 12.5817 25.7638 11.6321 25.6524C9.92053 25.4472 8.22649 25.0193 6.50315 24.3452C5.6239 23.9994 4.56879 23.5011 4.56879 23.4308C4.56879 23.1436 7.31793 18.8763 7.50551 18.8763C7.54068 18.8763 7.91582 18.9818 8.33787 19.1107C10.2078 19.6676 11.7787 19.9196 13.7189 19.9724C15.0612 20.0076 16.345 19.9255 16.6674 19.7907C17.107 19.6031 17.3532 19.0814 17.2242 18.6418C17.1363 18.3487 16.7846 18.0146 16.5032 17.9677C16.386 17.9442 15.9991 17.956 15.6298 17.9911C13.8772 18.1611 11.7142 17.9677 9.72123 17.4695C8.64854 17.194 8.68371 17.3112 9.42228 16.4671C10.7588 14.9313 12.6169 13.1318 14.3285 11.7015C14.7506 11.3498 15.1374 11.0216 15.1902 10.9747C15.284 10.8985 15.3661 10.9161 16.0108 11.1271C17.2125 11.5257 18.5021 11.725 19.7623 11.7191C21.0812 11.7133 21.3684 11.6371 21.6732 11.1916C21.7905 11.0274 21.8081 10.9336 21.7905 10.664C21.7612 10.2537 21.5853 9.99578 21.2278 9.83751C20.9933 9.732 20.8878 9.72028 20.284 9.75545C19.9089 9.77889 19.311 9.76717 18.9476 9.73786C18.2617 9.67338 17.2301 9.49753 17.2301 9.44478C17.2418 9.28065 20.9874 6.86563 22.828 5.83397C23.7835 5.30055 26.685 3.81168 26.7143 3.84098C26.726 3.85271 26.6323 4.21027 26.4974 4.64404Z" fill="#BB1E25"/>
</svg>
