<svg width="38" height="34" viewBox="0 0 38 34" fill="none" xmlns="http://www.w3.org/2000/svg">
<path d="M1.11523 8.70339L1.11526 8.70324C2.08061 4.5969 5.07647 1.62119 8.97886 0.940487C10.3752 0.694492 12.0008 0.787842 13.3003 1.1944L13.3006 1.19448C15.471 1.87681 17.4403 3.51235 18.7995 5.74155C18.9191 5.93633 19.0315 6.11367 19.1175 6.24385C19.2034 6.11367 19.3158 5.93634 19.4355 5.74156C20.5141 3.97264 22.0916 2.4708 23.7104 1.68679C27.0723 0.0565453 31.253 0.717113 34.0587 3.31306L34.0587 3.31313C36.9932 6.03079 38.1489 10.5433 36.9755 14.6105L36.9755 14.6106C36.4561 16.4069 35.4487 18.1933 33.8382 20.2029L33.8378 20.2033C33.0341 21.2008 30.1282 24.0914 28.3833 25.6235L28.3831 25.6236C27.5823 26.3253 25.3088 28.2941 23.333 29.9867L23.113 30.1754C21.3693 31.6716 20.4715 32.4419 19.9456 32.8236C19.6729 33.0215 19.4784 33.1318 19.3028 33.1769C19.1239 33.2229 18.9813 33.196 18.8476 33.1708C18.8427 33.1699 18.8377 33.169 18.8328 33.168L18.8319 33.1679C18.7728 33.1565 18.714 33.1259 18.665 33.0971C18.6106 33.0651 18.5451 33.0211 18.4675 32.9651C18.312 32.8527 18.0959 32.683 17.8013 32.4421C17.2115 31.9598 16.2964 31.183 14.9018 29.9866L14.9017 29.9865C9.59196 25.4272 8.56676 24.5162 6.68426 22.6337L6.68397 22.6334C4.95926 20.9016 4.2354 20.0712 3.32704 18.7766L3.32677 18.7762C1.05435 15.5217 0.307513 12.1506 1.11523 8.70339ZM18.1766 10.1511L18.1764 10.1513L18.1697 10.1431C18.1401 10.1069 18.1096 10.0541 18.0826 10.0037C18.0532 9.94887 18.0198 9.88139 17.9848 9.80628C17.9147 9.65611 17.8351 9.46985 17.7628 9.28191C16.5309 6.15351 14.5729 4.14113 12.2333 3.51861C11.8402 3.41448 11.2912 3.35341 10.731 3.34208C10.1708 3.33076 9.61592 3.36949 9.21168 3.45708L9.21098 3.45723C8.14327 3.68455 7.25648 4.09663 6.36528 4.76676L6.36516 4.76685C4.26968 6.34018 3.05888 9.3823 3.37804 12.3172C3.75147 15.726 5.84155 18.7049 11.4968 23.709C12.5682 24.6567 14.486 26.3126 16.1462 27.7321C16.9762 28.4418 17.7413 29.0919 18.3035 29.5644C18.5848 29.8008 18.8147 29.9922 18.9765 30.1244C19.0322 30.1699 19.0794 30.208 19.1175 30.2383C19.1555 30.208 19.2027 30.1699 19.2584 30.1244C19.4202 29.9922 19.6501 29.8008 19.9314 29.5644C20.4937 29.0919 21.2588 28.4418 22.0888 27.7321C23.7489 26.3126 25.6667 24.6567 26.7381 23.7091C32.3935 18.7049 34.4835 15.7259 34.8569 12.3171C35.127 9.85173 34.33 7.33071 32.7111 5.50427L32.7109 5.50401C32.3543 5.10036 31.8034 4.67747 31.1844 4.31582C30.5664 3.9547 29.8935 3.66228 29.2998 3.51215L29.2997 3.51213C28.792 3.3835 28.5278 3.35546 27.6156 3.36248L27.6152 3.36248C26.9721 3.36599 26.5248 3.39774 26.1153 3.48791C25.7073 3.57773 25.3271 3.72766 24.8213 3.97886L24.8207 3.97915C22.9672 4.89216 21.501 6.67138 20.472 9.28211C20.3351 9.6367 20.2325 9.87605 20.1197 10.0464C19.9977 10.2304 19.866 10.331 19.69 10.4211L19.6897 10.4212C19.4478 10.5444 19.1557 10.5678 18.8895 10.5204C18.6234 10.4731 18.3582 10.3505 18.1766 10.1511Z" fill="#BB1E25" stroke="white" stroke-width="0.4"/>
</svg>
