<svg width="36" height="30" viewBox="0 0 36 30" fill="none" xmlns="http://www.w3.org/2000/svg">
<path d="M18.2283 0.332207C18.0244 0.388474 17.7079 0.508039 17.525 0.606506C17.3351 0.697939 14.9649 2.1679 12.243 3.87699L7.2986 6.97867H5.35037C3.16302 6.97867 2.73399 7.03493 1.98143 7.41473C1.05303 7.88596 0.258272 8.94799 0.0613399 9.96782C0.00507353 10.2632 -0.00899305 11.8387 0.00507353 15.2428C0.0261734 19.716 0.0332067 20.1239 0.152773 20.4333C0.483337 21.3125 1.16557 22.1284 1.88296 22.5082C2.68476 22.9372 2.86059 22.9583 5.18158 23.0005L7.31969 23.0286L12.25 26.1233C14.9649 27.8253 17.3351 29.2953 17.518 29.3867C18.7418 30.0057 20.3242 29.8509 21.3652 29.0069C21.8364 28.6271 22.1177 28.2966 22.3498 27.8675C22.807 27.0165 22.7789 27.7902 22.7789 14.9966C22.7789 2.20306 22.807 2.97672 22.3498 2.1257C22.0263 1.52787 21.3792 0.894871 20.7744 0.59244C20.0781 0.247808 18.9668 0.135275 18.2283 0.332207ZM19.6209 3.11739C20.064 3.43389 20.0359 2.57583 20.0359 14.9966C20.0359 27.4174 20.064 26.5593 19.6209 26.8758C19.3959 27.0376 18.9879 27.0728 18.7488 26.9391C18.6644 26.8969 16.3645 25.4622 13.6356 23.7531C10.9067 22.044 8.53645 20.567 8.36062 20.4755C8.05116 20.3068 8.00192 20.3068 5.72314 20.2716C3.14895 20.2294 3.16302 20.2364 2.87466 19.7582C2.74102 19.5401 2.73399 19.3713 2.73399 15.0107C2.73399 10.01 2.71992 10.1718 3.17709 9.89748C3.38809 9.76385 3.57799 9.75682 5.72314 9.72165C8.00192 9.68648 8.05116 9.68648 8.36062 9.51768C8.53645 9.42625 10.9067 7.94926 13.6356 6.24017C16.3645 4.53108 18.6574 3.09629 18.7347 3.05409C18.9598 2.92749 19.3959 2.95563 19.6209 3.11739Z" fill="#BB1E25"/>
<path d="M27.1043 10.2788C26.4291 10.5882 26.1266 11.3548 26.4009 12.03C26.4713 12.1918 27.0058 12.7826 27.8638 13.6407L29.2142 14.9981L27.8638 16.3485C27.0058 17.2136 26.4713 17.8044 26.4009 17.9661C25.9438 19.0704 27.0761 20.2027 28.1803 19.7456C28.3421 19.6752 28.9329 19.1407 29.798 18.2826L31.1484 16.9322L32.5058 18.2826C33.3639 19.1407 33.9547 19.6752 34.1164 19.7456C35.2207 20.2027 36.353 19.0704 35.8959 17.9661C35.8255 17.8044 35.291 17.2136 34.4329 16.3485L33.0825 14.9981L34.4329 13.6407C35.291 12.7826 35.8255 12.1918 35.8959 12.03C36.353 10.9258 35.2207 9.79346 34.1164 10.2506C33.9547 10.321 33.3639 10.8555 32.5058 11.7135L31.1484 13.0639L29.798 11.7135C28.9329 10.8555 28.3421 10.321 28.1803 10.2506C27.8357 10.11 27.4489 10.117 27.1043 10.2788Z" fill="#BB1E25"/>
</svg>
