<svg width="25" height="20" viewBox="0 0 25 20" fill="none" xmlns="http://www.w3.org/2000/svg">
<path d="M17.4959 0.414421C17.3203 0.480862 17.1447 0.646965 17.064 0.827305C16.9786 1.01239 16.9738 1.3351 16.9738 9.47888V17.9406H16.1433H15.3128L15.3033 11.1874L15.2891 4.42936L15.1562 4.25851C14.9047 3.92631 15.0233 3.94054 12.228 3.94054C9.43276 3.94054 9.55141 3.92631 9.29988 4.25851L9.167 4.42936L9.15276 11.1874L9.14327 17.9406H8.31275H7.48224V13.0192C7.48224 8.14057 7.48224 8.09785 7.38258 7.89853C7.32563 7.77514 7.21173 7.64701 7.11207 7.58531L6.93648 7.47616L4.61104 7.46192C3.33442 7.45243 2.1717 7.46192 2.03408 7.47616C1.7256 7.51412 1.43611 7.74667 1.36017 8.01243C1.3317 8.12633 1.31272 9.91549 1.31272 13.062V17.9406H1.01848C0.429999 17.9454 0.102539 18.2206 0.102539 18.7094C0.102539 18.9989 0.183217 19.1555 0.429999 19.3359L0.558135 19.4355H12.228H23.8979L24.0261 19.3359C24.2728 19.1555 24.3535 18.9989 24.3535 18.7094C24.3535 18.2206 24.0261 17.9454 23.4423 17.9406H23.1433L23.1339 9.43142C23.1196 0.94595 23.1196 0.926966 23.02 0.760864C22.9678 0.670694 22.8396 0.547304 22.7352 0.490355L22.5501 0.381201L20.0586 0.385946C18.687 0.385946 17.5338 0.400185 17.4959 0.414421ZM21.6247 9.92024V17.9406H20.0586H18.4925V9.92024V1.89985H20.0586H21.6247V9.92024ZM13.7941 11.6999V17.9406H12.228H10.6619V11.6999V5.4592H12.228H13.7941V11.6999ZM5.96359 13.4559V17.9406H4.39748H2.83137V13.4891C2.83137 11.0402 2.84561 9.01854 2.86459 9.0043C2.87883 8.98532 3.58595 8.97108 4.4307 8.97108H5.96359V13.4559Z" fill="#999999"/>
</svg>
